<svg xmlns="http://www.w3.org/2000/svg" xmlns:xlink="http://www.w3.org/1999/xlink" version="1.1" width="979.027pt" height="735.319pt" viewBox="0 0 979.027 735.319">
<defs>
<clipPath id="clip_1">
<path transform="matrix(1,0,0,-1,0,735.319)" d="M0 735.319H979.027V0H0Z"/>
</clipPath>
<path id="font_2_36" d="M.37600709-.011993408C.30999757-.011993408 .25232444 .0030059815 .20298767 .03300476 .15366109 .06300354 .11533102 .10483297 .08799744 .15849304 .06066386 .21216329 .04699707 .274999 .04699707 .34700013 .04699707 .41832987 .060994466 .48149619 .08898926 .536499 .116994228 .5915019 .15716045 .63450118 .20948792 .6654968 .26182557 .6965027 .32366435 .7120056 .39500428 .7120056 .47633363 .7120056 .54399618 .6925049 .59799197 .6535034 .65199789 .61450198 .68666586 .56033328 .70199587 .4909973H.56700137C.55700179 .5256653 .53750106 .55266317 .50849917 .57199099 .47949729 .5913289 .44166566 .6009979 .39500428 .6009979 .3476715 .6009979 .30700175 .5908305 .272995 .5704956 .23899842 .5501607 .21316529 .52082827 .1954956 .48249818 .1778361 .4441681 .16900635 .39866639 .16900635 .34599305 .16900635 .29332987 .17800395 .24799602 .19599915 .20999146 .21400452 .17199707 .23933919 .14316304 .27200318 .12348938 .30466715 .10382589 .34299723 .09399414 .3869934 .09399414 .45233155 .09399414 .5016683 .112325038 .53500369 .14898682 .56833907 .18565877 .5880025 .23333232 .59399417 .29200746H.41299439V.3829956H.71499636V0H.6040039L.5950012 .09599304C.5796712 .07332865 .5620015 .053827924 .5419922 .037490846 .521993 .02116394 .49849449 .008834839 .47149659 .00050354006 .4444987-.007827759 .41266886-.011993408 .37600709-.011993408Z"/>
<path id="font_2_210" d="M.067993167 0V.5039978H.17500305L.18499756 .41000367C.19766236 .43199668 .21266175 .45082603 .22999573 .4664917 .24732971 .48216758 .2683309 .494339 .29299928 .503006 .31766764 .511673 .34500123 .51600649 .375 .51600649V.3899994H.33200074C.31200157 .3899994 .29299928 .38749696 .2749939 .38249208 .2569987 .37749736 .24150086 .3693339 .22850037 .3580017 .21549988 .34666953 .20550029 .33133445 .19850159 .31199647 .19150289 .29266868 .18800354 .2690023 .18800354 .24099732V0H.067993167Z"/>
<path id="font_2_196" d="M.30200196-.011993408C.2539978-.011993408 .21083069-.0009969076 .17250061 .020996094 .13417053 .042999269 .10417175 .07400004 .08250427 .11399841 .060836793 .15399678 .05000305 .19966634 .05000305 .25100709 .05000305 .30367027 .060999555 .350001 .08299255 .3899994 .10499573 .42999778 .13516236 .46099855 .17349243 .4830017 .21183269 .5050049 .2549998 .51600649 .30299378 .51600649 .35099793 .51600649 .3939972 .5050049 .43199159 .4830017 .46999613 .46099855 .5001628 .43016053 .52249148 .39048768 .5448303 .35082499 .55599978 .30466209 .55599978 .2519989 .55599978 .19999695 .54466757 .15399678 .5220032 .11399841 .49933879 .07400004 .4690043 .042999269 .43099977 .020996094 .3929952-.0009969076 .34999595-.011993408 .30200196-.011993408M.30200196 .09100342C.32599894 .09100342 .3478292 .09716797 .36749269 .10949707 .38716636 .12183634 .40299989 .14000447 .4149933 .16400147 .42699687 .18799846 .43299867 .21733094 .43299867 .2519989 .43299867 .2873281 .4271647 .31699119 .41549684 .34098817 .40382896 .36499534 .38816325 .3829956 .36849977 .394989 .34883628 .40699259 .32733665 .41299439 .30400086 .41299439 .28000389 .41299439 .2580007 .40699259 .23799134 .394989 .21799214 .3829956 .20199077 .36499534 .18998719 .34098817 .17799378 .31699119 .17199707 .2873281 .17199707 .2519989 .17199707 .21733094 .17799378 .18799846 .18998719 .16400147 .20199077 .14000447 .2178243 .12183634 .2374878 .10949707 .25716148 .09716797 .27866618 .09100342 .30200196 .09100342Z"/>
<path id="font_2_236" d="M.16700745 0 .018997193 .5039978H.13800049L.24099732 .09100342H.21899414L.33399964 .5039978H.46800233L.58399966 .09100342 .56199648 .08999634 .6649933 .5039978H.7839966L.6369934 0H.5130005L.3899994 .42799378H.4149933L.29100038 0H.16700745Z"/>
<path id="font_2_139" d="M.30599977-.011993408C.2560018-.011993408 .21166992-.00082906088 .17300415 .021499634 .13433838 .043828329 .10417175 .07482401 .08250427 .114486698 .060836793 .15415955 .05000305 .19933065 .05000305 .25 .05000305 .30266319 .060836793 .34899394 .08250427 .3889923 .10417175 .42900086 .13433838 .46016947 .17300415 .48249818 .21166992 .50483706 .2560018 .51600649 .30599977 .51600649 .3693339 .51600649 .4225006 .49950663 .46549989 .46650697 .50849917 .4335073 .53566488 .38833619 .5469971 .33099366H.42100526C.41433207 .35699464 .40049745 .37716166 .37950135 .39149476 .35850526 .40582786 .33366905 .41299439 .30499269 .41299439 .28033448 .41299439 .25783793 .40682984 .23750305 .39450074 .21716817 .38217164 .2011668 .3640035 .1894989 .33999635 .17783101 .31599937 .17199707 .28666688 .17199707 .2519989 .17199707 .22666931 .17532857 .20383708 .18199158 .1835022 .18866475 .16316732 .1981659 .14616394 .210495 .13249207 .22283428 .11883036 .23699951 .10833231 .25299073 .100997928 .2689921 .093663539 .28632609 .08999634 .30499269 .08999634 .32365928 .08999634 .34099327 .09332784 .35699464 .099990848 .372996 .106664028 .3866628 .11616516 .397995 .12849427 .40932719 .14083354 .41699729 .15567017 .42100526 .17300415H.5469971C.53500369 .117004398 .50750228 .07216898 .4644928 .038497926 .42149354 .004837036 .3686625-.011993408 .30599977-.011993408Z"/>
<path id="font_2_126" d="M.23500061-.011993408C.19433086-.011993408 .16016133-.0049947106 .13249207 .009002686 .10483297 .023000082 .08433533 .041666669 .070999149 .06500244 .057662965 .08833822 .050994874 .1140035 .050994874 .14199829 .050994874 .17332967 .05916341 .20066326 .07550049 .22399903 .09183756 .2473348 .1160024 .26550294 .147995 .27850343 .17999776 .2915039 .21966553 .29800416 .2669983 .29800416H.3939972C.3939972 .32466636 .39016215 .34683229 .38249208 .36450196 .37483216 .38217164 .36333213 .39550273 .34799195 .40449525 .33266197 .41349793 .31266276 .41799928 .28799439 .41799928 .2606608 .41799928 .23732503 .41166688 .21798706 .39900209 .19865926 .38633729 .18666585 .367335 .18200684 .34199525H.06399536C.068003337 .37799583 .08016968 .40899659 .100494388 .43499757 .12082926 .46099855 .14749654 .4809977 .18049622 .49499513 .2134959 .5090027 .24932862 .51600649 .28799439 .51600649 .33599855 .51600649 .37683106 .50783798 .41049195 .49150086 .444163 .4751638 .46983338 .45199586 .48750306 .42199708 .5051727 .3919983 .51400759 .35533143 .51400759 .31199647V0H.41099549L.39900209 .08000183C.39233909 .06666565 .38383994 .05449422 .37350465 .04348755 .36316935 .032491048 .35116578 .022827149 .3374939 .01449585 .32383219 .006164551 .30866496-.0003306071 .2919922-.004989624 .2753296-.0096588139 .2563324-.011993408 .23500061-.011993408M.2619934 .08299255C.2813314 .08299255 .29866538 .086491908 .31399537 .0934906 .32933555 .10049947 .34233604 .11050415 .35299684 .12350464 .36366783 .13650513 .37216697 .15116883 .37849427 .16749573 .38483177 .18383281 .38866679 .20099895 .3899994 .21899414V.22099304H.27999879C.2560018 .22099304 .23650106 .21799214 .22149658 .21199036 .20650228 .20599874 .19533794 .19783528 .18800354 .1875 .18066915 .17716472 .17700196 .16499837 .17700196 .15100098 .17700196 .1363322 .1805013 .12399801 .1875 .11399841 .1944987 .10399882 .20449829 .096328739 .21749878 .09098816 .23049927 .08565775 .24533081 .08299255 .2619934 .08299255Z"/>
<path id="font_2_165" d="M.067993167 0V.7200012H.18800354V.42599488C.20400493 .45332847 .2263387 .4751638 .25500489 .49150086 .28367106 .50783798 .31633506 .51600649 .35299684 .51600649 .3936666 .51600649 .42833457 .50750228 .45700074 .49049378 .4856669 .47349549 .50749716 .44832865 .52249148 .4149933 .5374959 .3816681 .54499819 .34067283 .54499819 .29200746V0H.42599488V.28100587C.42599488 .32433067 .4169922 .35749308 .39898683 .38049317 .3809916 .40349327 .35332743 .4149933 .31599427 .4149933 .29199729 .4149933 .27016197 .4089915 .25048829 .39698792 .23082479 .3849945 .2154948 .36799623 .20449829 .34599305 .19350179 .32400004 .18800354 .29766847 .18800354 .2669983V0H.067993167Z"/>
<path id="font_3_42" d="M.07499695 0V.69999697H.15899658V0H.07499695Z"/>
<path id="font_3_190" d="M.070007327 0V.5039978H.1459961L.1499939 .41600038C.16599529 .44733177 .18882752 .47183229 .2184906 .48950196 .24816387 .50717166 .28200279 .51600649 .32000733 .51600649 .35933433 .51600649 .3933309 .5081685 .42199708 .49249269 .45066325 .476827 .47299705 .4531606 .4889984 .42149354 .5049998 .38982646 .5130005 .34966026 .5130005 .30099488V0H.42900086V.29200746C.42900086 .34266664 .41783143 .380661 .39549256 .4059906 .37316386 .43133036 .34166465 .44400025 .30099488 .44400025 .2730001 .44400025 .2480011 .4371643 .22599793 .42349244 .20399475 .40983073 .18649292 .39016725 .17349243 .36450196 .16050212 .33883668 .15400696 .30700175 .15400696 .2689972V0H.070007327Z"/>
<path id="font_3_235" d="M.21499634 0 .024002076 .5039978H.11199951L.26400758 .08099365 .41700746 .5039978H.503006L.31199647 0H.21499634Z"/>
<path id="font_3_148" d="M.29100038-.011993408C.2436676-.011993408 .20183309-.0009969076 .16549683 .020996094 .12916057 .042999269 .10065714 .07383219 .07998657 .11349487 .059326173 .15316773 .04899597 .19933574 .04899597 .2519989 .04899597 .30533348 .05916341 .35166423 .07949829 .3909912 .09983317 .43032838 .12849935 .46099855 .16549683 .4830017 .20249431 .5050049 .24499512 .51600649 .29299928 .51600649 .34233604 .51600649 .38417054 .5050049 .4185028 .4830017 .45283509 .46099855 .47916667 .43216453 .49749757 .39649964 .51582846 .36083476 .5249939 .32167054 .5249939 .27900697 .5249939 .27233378 .5249939 .26533 .5249939 .2579956 .5249939 .25066123 .52466329 .24232991 .5240021 .23300171H.11199951V.29800416H.44299317C.44099937 .3440043 .42583213 .38000489 .39749146 .40600587 .36916099 .43200685 .33366395 .44500733 .29100038 .44500733 .2623342 .44500733 .23583476 .43850709 .21150208 .4255066 .18716939 .4125061 .16766866 .39350382 .15299988 .36849977 .1383311 .3434957 .1309967 .31232707 .1309967 .2749939V.24699402C.1309967 .20566304 .13849385 .17099507 .15348816 .14299011 .16849263 .11499532 .18816121 .09399923 .2124939 .08000183 .23682659 .06600443 .2629954 .059005739 .29100038 .059005739 .32632957 .059005739 .35549418 .066838588 .37849427 .08250427 .40149436 .09816996 .41799418 .1193339 .42799378 .1459961H.5110016C.5029958 .115997318 .48899333 .08899943 .46899415 .06500244 .44899497 .04100545 .42416383 .02217102 .39450074 .0084991459 .36483766-.005162557 .33033753-.011993408 .29100038-.011993408Z"/>
<path id="font_3_214" d="M.2599945-.011993408C.21800232-.011993408 .1815033-.0049947106 .15049744 .009002686 .11950175 .023000082 .094833377 .042495729 .07649231 .067489627 .05816142 .09249369 .04699707 .12199911 .042999269 .15600586H.1289978C.1323344 .13867188 .13933309 .122670497 .1499939 .10800171 .16066487 .093332927 .17516582 .08149719 .1934967 .07249451 .21182759 .06350199 .23432923 .059005739 .2610016 .059005739 .28433738 .059005739 .30367027 .06250509 .31900025 .069503787 .33433024 .07650248 .3458303 .085998538 .35350038 .09799194 .36117045 .10999552 .3650055 .12299601 .3650055 .13699341 .3650055 .15766399 .36016847 .17332967 .35049439 .18399048 .34083048 .19466146 .32666526 .2031606 .30799867 .20948792 .28933207 .2158254 .2666677 .22132874 .2400055 .22599793 .21800232 .22999573 .19633484 .23532613 .17500305 .24198914 .15367127 .24866231 .13466899 .25749717 .117996219 .26849366 .10133362 .27950035 .08816528 .29299928 .07849121 .30899049 .06882731 .32499186 .06399536 .34466044 .06399536 .36799623 .06399536 .39666239 .07132975 .42215983 .085998538 .44448854 .10066732 .4668274 .12183126 .48432923 .14949036 .49699403 .17715962 .509669 .20933025 .51600649 .2460022 .51600649 .29999797 .51600649 .34366355 .503006 .3769989 .477005 .41033427 .45100404 .43000285 .41333518 .43600465 .3639984H.35299684C.3496704 .389328 .33883668 .40915934 .3204956 .42349244 .3021647 .4378357 .2769979 .44500733 .24499512 .44500733 .21366374 .44500733 .18982952 .43866984 .17349243 .42599488 .15716553 .41333009 .14900208 .39666749 .14900208 .37600709 .14900208 .3626709 .15349834 .35083518 .16249085 .34049989 .17149353 .33016459 .18482971 .32132975 .20249939 .31399537 .22016907 .30666099 .2420044 .30066429 .26800538 .29600526 .30133058 .29000346 .33165995 .28200279 .35899354 .27200318 .38632713 .26200358 .40849305 .24716695 .42549134 .22749329 .4424998 .20782979 .45100404 .17999776 .45100404 .14399719 .45100404 .11266581 .44317118 .08533224 .4275055 .06199646 .4118398 .038660688 .3896688 .020492554 .36099244 .0074920656 .33232627-.0054982507 .29866029-.011993408 .2599945-.011993408Z"/>
<path id="font_3_220" d="M.26800538 0C.23800659 0 .21200562 .004664103 .19000244 .01399231 .16799927 .023330689 .15116374 .039164228 .13949585 .06149292 .12782796 .08383179 .12199402 .11399841 .12199402 .1519928V.43299867H.033996583V.5039978H.12199402L.1329956 .6260071H.20599365V.5039978H.352005V.43299867H.20599365V.1519928C.20599365 .120661418 .21232605 .099497478 .22499085 .08850098 .23766582 .07750448 .26000468 .072006229 .29200746 .072006229H.34599305V0H.26800538Z"/>
<path id="font_3_321" d="M0 0Z"/>
<path id="font_3_167" d="M.07800293 0V.5039978H.16200257V0H.07800293M.11999512 .61099246C.10333252 .61099246 .08949789 .61649069 .07849121 .6274872 .06749471 .63849386 .06199646 .65233358 .06199646 .66900637 .06199646 .68566897 .06749471 .6991679 .07849121 .7095032 .08949789 .71983847 .10333252 .7250061 .11999512 .7250061 .1359965 .7250061 .14966329 .71983847 .16099549 .7095032 .17232768 .6991679 .17799378 .68566897 .17799378 .66900637 .17799378 .65233358 .17232768 .63849386 .16099549 .6274872 .14966329 .61649069 .1359965 .61099246 .11999512 .61099246Z"/>
<path id="font_3_242" d="M.125-.22000122 .2480011 .055999757H.21899414L.020996094 .5039978H.11199951L.27600099 .119003299 .44799806 .5039978H.53500369L.21299744-.22000122H.125Z"/>
<path id="font_3_196" d="M.29600526-.011993408C.24867249-.011993408 .20633953-.0011647543 .16900635 .020492554 .13167317 .042160036 .10233561 .07282511 .08099365 .11248779 .059661867 .15216065 .04899597 .19833374 .04899597 .25100709 .04899597 .30500285 .059829713 .35183207 .08149719 .39149476 .10316467 .4311676 .13283284 .46183778 .17050171 .48350526 .20817058 .5051727 .2506714 .51600649 .29800416 .51600649 .3453369 .51600649 .38750205 .5051727 .4244995 .48350526 .46149699 .46183778 .49082948 .43133546 .51249697 .3919983 .5341644 .35266114 .54499819 .30599467 .54499819 .2519989 .54499819 .19866435 .5339966 .15216065 .5119934 .11248779 .4900004 .07282511 .4603373 .042160036 .42300416 .020492554 .385671-.0011647543 .343338-.011993408 .29600526-.011993408M.29600526 .05999756C.32467143 .05999756 .35133363 .0671641 .37599183 .08149719 .4006602 .095830287 .4206594 .11732992 .43598939 .1459961 .45132957 .17466228 .45899964 .20999654 .45899964 .2519989 .45899964 .29466249 .4514974 .33015953 .43649293 .35849 .42149864 .38683067 .4018351 .4081675 .37750245 .4225006 .35316978 .4368337 .32667033 .44400025 .29800416 .44400025 .26933799 .44400025 .24250286 .4368337 .21749878 .4225006 .1924947 .4081675 .17249044 .38683067 .15748596 .35849 .14249166 .33015953 .1349945 .29466249 .1349945 .2519989 .1349945 .20999654 .14249166 .17466228 .15748596 .1459961 .17249044 .11732992 .19215901 .095830287 .2164917 .08149719 .24083455 .0671641 .26733909 .05999756 .29600526 .05999756Z"/>
<path id="font_3_224" d="M.25300599-.011993408C.21434021-.011993408 .1805064-.0043284099 .15150452 .011001587 .12250265 .026331583 .10016886 .049997968 .084503177 .08200073 .068837489 .1140035 .06100464 .15400188 .06100464 .20199585V.5039978H.14500427V.21099854C.14500427 .16032918 .15600078 .12249247 .17799378 .0974884 .19999695 .07249451 .23133342 .05999756 .27200318 .05999756 .29999797 .05999756 .3251597 .06682841 .3474884 .08049011 .36982728 .09416199 .38749696 .11383057 .40049745 .13949585 .41349793 .16516114 .41999818 .19666036 .41999818 .23399353V.5039978H.5039978V0H.42799378L.42300416 .08799744C.40766398 .056666059 .3849945 .032165529 .35499574 .01449585 .32499696-.0031636556 .29100038-.011993408 .25300599-.011993408Z"/>
<path id="font_3_210" d="M.070007327 0V.5039978H.1459961L.1519928 .40800477C.16333516 .43066917 .1778361 .45000205 .1954956 .46600343 .21316529 .4820048 .23449707 .494339 .25949098 .503006 .28449504 .511673 .31299845 .51600649 .34500123 .51600649V.42799378H.31399537C.29266358 .42799378 .2723287 .42516075 .25299073 .41949464 .23366292 .41382853 .21649678 .4046631 .20149231 .3919983 .186498 .3793335 .1748352 .36216737 .1665039 .34049989 .1581726 .3188324 .15400696 .29199729 .15400696 .2599945V0H.070007327Z"/>
<path id="font_3_139" d="M.29699708-.011993408C.2496643-.011993408 .2071635-.0009969076 .16949463 .020996094 .13183594 .042999269 .10233561 .07383219 .08099365 .11349487 .059661867 .15316773 .04899597 .19900513 .04899597 .25100709 .04899597 .30433146 .059661867 .35082499 .08099365 .39048768 .10233561 .43016053 .13183594 .46099855 .16949463 .4830017 .2071635 .5050049 .2496643 .51600649 .29699708 .51600649 .35699464 .51600649 .40699259 .50050356 .44699098 .46949769 .4869995 .43850199 .51233419 .39700318 .522995 .34500123H.43699647C.43033348 .3763326 .41400147 .40066529 .3880005 .41799928 .3619995 .43533326 .33133445 .44400025 .29600526 .44400025 .26733909 .44400025 .2406718 .4368337 .21600342 .4225006 .19133504 .4081675 .17166646 .38683067 .15699768 .35849 .1423289 .33015953 .1349945 .29466249 .1349945 .2519989 .1349945 .22066753 .139328 .1928355 .147995 .16850281 .15666199 .14417012 .16832988 .12400309 .18299866 .10800171 .19766744 .09200033 .21483357 .079833988 .23449707 .071502689 .25417076 .06317139 .27467347 .059005739 .29600526 .059005739 .31933085 .059005739 .3408254 .06300354 .3604889 .070999149 .38016258 .07899475 .39666239 .09049479 .4099884 .10549927 .42332459 .120503749 .43232728 .13833618 .43699647 .15899658H.522995C.51233419 .10832723 .48683677 .06715902 .4465027 .035491945 .4061686 .0038350423 .3563334-.011993408 .29699708-.011993408Z"/>
<path id="font_3_126" d="M.23399353-.011993408C.19333394-.011993408 .15933736-.0048268639 .13200379 .009506226 .104670207 .023839316 .08433533 .042836507 .070999149 .0664978 .057662965 .09016927 .050994874 .1160024 .050994874 .14399719 .050994874 .17800395 .059829713 .20683797 .07749939 .23049927 .09516907 .25417076 .12016805 .27217103 .15249634 .28450013 .1848348 .29682923 .22300212 .30299378 .2669983 .30299378H.3999939C.3999939 .33433534 .39516197 .36050416 .38549806 .38150025 .37583415 .40249635 .36183167 .41832987 .3434906 .42900086 .3251597 .43967185 .30232749 .44500733 .2749939 .44500733 .2430013 .44500733 .21533711 .43700663 .19200135 .42100526 .16866558 .40500389 .15433248 .3813375 .14900208 .3500061H.06300354C.06700134 .38600669 .07916769 .4161733 .09950256 .44050599 .11983744 .46483866 .14567058 .48350526 .17700196 .49650575 .20833333 .5095062 .24099732 .51600649 .2749939 .51600649 .32166545 .51600649 .36049906 .50750228 .39149476 .49049378 .4225006 .47349549 .44566856 .4498291 .46099855 .41949464 .47632853 .38916017 .48399354 .35332743 .48399354 .31199647V0H.40899659L.40400697 .08900452C.39733378 .07499695 .38882957 .061828615 .37849427 .04949951 .36816917 .03717041 .3560028 .026504517 .34199525 .017501831 .32799784 .0084991459 .3121643 .001332601 .29449464-.0039978029 .2768351-.009328206 .2566681-.011993408 .23399353-.011993408M.24699402 .059005739C.2703298 .059005739 .2914988 .063837688 .3105011 .07350159 .3295034 .08316549 .3456675 .09649658 .35899354 .11349487 .3723297 .13050334 .38249717 .14933777 .38949586 .16999817 .39649455 .19066875 .3999939 .21233623 .3999939 .23500061V.23800659H.27400209C.24133809 .23800659 .21500142 .23417156 .19499207 .22650147 .17499288 .21883138 .16065979 .2081604 .1519928 .19448853 .14333599 .18082683 .13900757 .16532898 .13900757 .147995 .13900757 .1299998 .14317322 .11433411 .15150452 .100997928 .15983582 .08766174 .17216492 .077326457 .18849182 .069992069 .2048289 .06266785 .22432964 .059005739 .24699402 .059005739Z"/>
</defs>
<g id="layer_1" data-name="Calque 1">
<g clip-path="url(#clip_1)">
<path transform="matrix(1,0,0,-1,573.0898,196.6095)" d="M0 0-65.64-61.617V29.548C-40.798 28.806-18.374 18.436-1.979 2.041-1.308 1.371-.648 .69 0 0" fill="#1ea872" fill-rule="evenodd"/>
<path transform="matrix(1,0,0,-1,485.993,263.93739)" d="M0 0V-112.637C28.962-111.933 55.282-100.576 75.186-82.331 76.428-81.192 77.645-80.027 78.837-78.836 99.118-58.557 111.89-30.77 112.638 0Z" fill="#25c4ec" fill-rule="evenodd"/>
<path transform="matrix(1,0,0,-1,346.1772,242.47888)" d="M0 0C.713-34.855 14.439-66.513 36.522-90.308 37.688-91.566 38.879-92.8 40.091-94.013 64.255-118.177 97.405-133.353 134.103-134.103V0Z" fill="#e62a64" fill-rule="evenodd"/>
<path transform="matrix(1,0,0,-1,598.6186,258.22669)" d="M0 0H-91.168L-25.529 61.617C-20.145 55.901-15.47 49.512-11.643 42.587-4.629 29.898-.46 15.414 0 0" fill="#31b886" fill-rule="evenodd"/>
<path transform="matrix(1,0,0,-1,575.7791,143.7428)" d="M0 0C0-12.901-10.458-23.359-23.359-23.359-36.26-23.359-46.719-12.901-46.719 0-46.719 12.901-36.26 23.359-23.359 23.359-10.458 23.359 0 12.901 0 0" fill="#e62a64" fill-rule="evenodd"/>
<path transform="matrix(1,0,0,-1,501.7407,107.88806)" d="M0 0V-128.881H-154.912C-154.533-119.862-153.275-111.07-151.223-102.587-136.794-42.964-83.079 1.32-19.021 1.32-12.565 1.32-6.216 .871 0 0" fill="#e9af3c" fill-rule="evenodd"/>
</g>
<use data-text="G" xlink:href="#font_2_36" transform="matrix(156.7315,0,0,-156.7315,48.6289,517.1266)"/>
<use data-text="r" xlink:href="#font_2_210" transform="matrix(156.7315,0,0,-156.7315,169.62563,517.1266)"/>
<use data-text="o" xlink:href="#font_2_196" transform="matrix(156.7315,0,0,-156.7315,230.28072,517.1266)"/>
<use data-text="w" xlink:href="#font_2_236" transform="matrix(156.7315,0,0,-156.7315,322.2821,517.1266)"/>
<use data-text="c" xlink:href="#font_2_139" transform="matrix(156.7315,0,0,-156.7315,445.47309,517.1266)"/>
<use data-text="o" xlink:href="#font_2_196" transform="matrix(156.7315,0,0,-156.7315,538.8851,517.1266)"/>
<use data-text="a" xlink:href="#font_2_126" transform="matrix(156.7315,0,0,-156.7315,633.70767,517.1266)"/>
<use data-text="c" xlink:href="#font_2_139" transform="matrix(156.7315,0,0,-156.7315,723.6715,517.1266)"/>
<use data-text="h" xlink:href="#font_2_165" transform="matrix(156.7315,0,0,-156.7315,817.0835,517.1266)"/>
<use data-text="I" xlink:href="#font_3_42" transform="matrix(50.1211,0,0,-50.1211,262.1797,600.76718)" fill="#e9af3c"/>
<use data-text="n" xlink:href="#font_3_190" transform="matrix(50.1211,0,0,-50.1211,273.90803,600.76718)" fill="#e9af3c"/>
<use data-text="v" xlink:href="#font_3_235" transform="matrix(50.1211,0,0,-50.1211,302.1763,600.76718)" fill="#e9af3c"/>
<use data-text="e" xlink:href="#font_3_148" transform="matrix(50.1211,0,0,-50.1211,327.3371,600.76718)" fill="#e9af3c"/>
<use data-text="s" xlink:href="#font_3_214" transform="matrix(50.1211,0,0,-50.1211,355.80589,600.76718)" fill="#e9af3c"/>
<use data-text="t" xlink:href="#font_3_220" transform="matrix(50.1211,0,0,-50.1211,379.864,600.76718)" fill="#e9af3c"/>
<use data-text=" " xlink:href="#font_3_321" transform="matrix(50.1211,0,0,-50.1211,399.51148,600.76718)" fill="#e9af3c"/>
<use data-text="i" xlink:href="#font_3_167" transform="matrix(50.1211,0,0,-50.1211,412.8437,600.76718)" fill="#e9af3c"/>
<use data-text="n" xlink:href="#font_3_190" transform="matrix(50.1211,0,0,-50.1211,424.87275,600.76718)" fill="#e9af3c"/>
<use data-text=" " xlink:href="#font_3_321" transform="matrix(50.1211,0,0,-50.1211,453.64225,600.76718)" fill="#e9af3c"/>
<use data-text="y" xlink:href="#font_3_242" transform="matrix(50.1211,0,0,-50.1211,466.97447,600.76718)" fill="#e9af3c"/>
<use data-text="o" xlink:href="#font_3_196" transform="matrix(50.1211,0,0,-50.1211,492.49113,600.76718)" fill="#e9af3c"/>
<use data-text="u" xlink:href="#font_3_224" transform="matrix(50.1211,0,0,-50.1211,522.21298,600.76718)" fill="#e9af3c"/>
<use data-text="r" xlink:href="#font_3_210" transform="matrix(50.1211,0,0,-50.1211,550.9324,600.76718)" fill="#e9af3c"/>
<use data-text=" " xlink:href="#font_3_321" transform="matrix(50.1211,0,0,-50.1211,569.4772,600.76718)" fill="#e9af3c"/>
<use data-text="c" xlink:href="#font_3_139" transform="matrix(50.1211,0,0,-50.1211,582.8094,600.76718)" fill="#e9af3c"/>
<use data-text="a" xlink:href="#font_3_126" transform="matrix(50.1211,0,0,-50.1211,611.47866,600.76718)" fill="#e9af3c"/>
<use data-text="r" xlink:href="#font_3_210" transform="matrix(50.1211,0,0,-50.1211,638.7445,600.76718)" fill="#e9af3c"/>
<use data-text="e" xlink:href="#font_3_148" transform="matrix(50.1211,0,0,-50.1211,656.33706,600.76718)" fill="#e9af3c"/>
<use data-text="e" xlink:href="#font_3_148" transform="matrix(50.1211,0,0,-50.1211,684.80587,600.76718)" fill="#e9af3c"/>
<use data-text="r" xlink:href="#font_3_210" transform="matrix(50.1211,0,0,-50.1211,713.27468,600.76718)" fill="#e9af3c"/>
<use data-text=" " xlink:href="#font_3_321" transform="matrix(50.1211,0,0,-50.1211,731.81948,600.76718)" fill="#e9af3c"/>
<use data-text=" " xlink:href="#font_3_321" transform="matrix(24.1467,0,0,-24.1467,503.6602,629.7428)" fill="#231f20"/>
</g>
</svg>
